# xmcd
# 
# Track frame offsets:
#     150
#     14242
#     26070
#     39052
#     50635
#     65425
#     79955
#     93945
#     107410
#     121433
#     134668
#     154843
#     166731
#     177623
# 
# Disc length: 2546
# 
# Revision: 6
# Processed by: cddbd v1.5.2PL0 Copyright (c) Steve Scherf et al.
# Submitted via: fre:ac v1.1beta1pre3
# 
DISCID=bc09f00e
DTITLE=Bo Diddley - Signifying Blues
DYEAR=1995
DGENRE=Blues
TTITLE0=I'm a Man
TTITLE1=Little Girl
TTITLE2=You Don't Love Me (You Don't Care)
TTITLE3=I'm Looking For A Woman
TTITLE4=I'm Bad
TTITLE5=Down Home Special
TTITLE6=Before You Accuse Me
TTITLE7=The Clock Strikes Twelve
TTITLE8=Oh Yea
TTITLE9=Blues Blues
TTITLE10=Signifying Blues
TTITLE11=Live My Life
TTITLE12=I Want My Baby
TTITLE13=Mama Keep Your Big Mouth Shut
EXTD=
EXTT0=
EXTT1=
EXTT2=
EXTT3=
EXTT4=
EXTT5=
EXTT6=
EXTT7=
EXTT8=
EXTT9=
EXTT10=
EXTT11=
EXTT12=
EXTT13=
PLAYORDER=
